<svg xmlns="http://www.w3.org/2000/svg" width="426" height="327" viewBox="0 0 426 327">
  <g fill-rule="evenodd" transform="translate(-1 -7)">
    <polygon fill-rule="nonzero" points="0 117.524 0 4.009 19.143 18.438 19.143 98.185" transform="matrix(1 0 0 -1 137.22 298.244)"/>
    <polygon fill-rule="nonzero" points="0 0 24.928 5.693 34.996 13.946 34.996 28.911" transform="matrix(1 0 0 -1 178.348 207.226)"/>
    <polygon fill-rule="nonzero" points="39.175 26.117 3.957 42.348 35.793 6.673 47.845 18.569" transform="matrix(1 0 0 -1 136.043 52.82)"/>
    <polygon fill-rule="nonzero" points="0 39.175 11.06 39.175 14.664 21.128 14.73 21.128 18.334 39.175 29.394 39.175 29.394 8.488 22.042 8.488 22.042 28.18 21.964 28.18 17.589 8.488 11.805 8.488 7.417 28.18 7.352 28.18 7.352 8.488 0 8.488" transform="matrix(1 0 0 -1 1 341.765)"/>
    <path fill-rule="nonzero" d="M26.11652,13.05826 C26.11652,4.54427448 22.3296246,0.47009736 14.6383095,0.47009736 C6.94699432,0.47009736 3.12092414,4.54427448 3.12092414,13.05826 L3.12092414,31.8752127 L10.8905888,31.8752127 L10.8905888,15.1475816 C10.8905888,12.0135992 10.8905888,8.10917946 14.664426,8.10917946 C18.3599136,8.10917946 18.3599136,12.0135992 18.3599136,15.1475816 L18.3599136,31.8752127 L26.11652,31.8752127 L26.11652,13.05826 Z" transform="matrix(1 0 0 -1 30.008 334.463)"/>
    <path fill-rule="nonzero" d="M8.05826,11.05826 C8.05826,10.2878227 8.16272608,9.59573488 8.34554172,9.0342297 C8.9070469,7.19301504 10.6046207,6.80126724 12.0540876,6.80126724 C13.3207388,6.80126724 15.2664195,7.31053938 15.2664195,9.59573488 C15.2664195,11.1757843 14.1825839,11.6067069 9.8211251,13.1084068 C5.8383558,14.4925824 1.2679648,15.8245249 1.2679648,22.0141401 C1.2679648,29.0917171 6.26927838,32.1473499 11.4534076,32.1473499 C16.9248185,32.1473499 21.769433,29.6140475 21.9783652,22.1316645 L14.639623,22.1316645 C14.7702056,23.2938496 14.3523413,24.064287 13.7124866,24.5996756 C13.0726318,25.1350643 12.1846702,25.3570547 11.4142328,25.3570547 C10.3565138,25.3570547 8.61976518,25.0175399 8.61976518,23.2938496 C8.76340604,21.1131202 12.3674858,20.6430228 15.9323908,19.4286047 C19.510354,18.2272447 23.0360842,16.2032144 23.0360842,10.5881626 C23.0360842,2.58344926 17.0031681,0.01097204 11.3881163,0.01097204 C8.5152991,0.01097204 0.3538866,1.264565 0.2885953,11.05826 L8.05826,11.05826 Z" transform="matrix(1 0 0 -1 58.088 334.01)"/>
    <polygon fill-rule="nonzero" points="83.621 302.596 91.391 302.596 91.391 333.283 83.621 333.283"/>
    <path fill-rule="nonzero" d="M26.11652,26.11652 C25.9728791,27.2395304 25.2677331,30.634678 22.0423429,30.634678 C18.4121466,30.634678 17.2499615,26.3254522 17.2499615,22.199042 C17.2499615,18.0856901 18.4121466,13.7764643 22.0423429,13.7764643 C24.6670531,13.7764643 25.6986557,16.022485 26.1556948,18.8953022 L33.7817186,18.8953022 C33.7817186,12.705687 29.6553085,6.1373822 22.2643333,6.1373822 C14.1029208,6.1373822 9.4672385,13.1366096 9.4672385,22.199042 C9.4672385,31.8621544 14.4946686,38.2737601 22.2643333,38.2737601 C29.1982694,38.2345853 32.998223,33.8078351 33.6772525,26.11652 L26.11652,26.11652 Z" transform="matrix(1 0 0 -1 84.912 340.137)"/>
    <polygon fill-rule="nonzero" points="13.058 26.117 5.994 26.117 5.994 33.978 27.892 33.978 27.892 26.117 20.828 26.117 20.828 3.291 13.058 3.291" transform="matrix(1 0 0 -1 125.787 336.567)"/>
    <polygon fill-rule="nonzero" points="0 39.175 20.867 39.175 20.867 31.314 7.77 31.314 7.77 27.475 19.666 27.475 19.666 20.188 7.77 20.188 7.77 16.349 21.272 16.349 21.272 8.488 0 8.488" transform="matrix(1 0 0 -1 155.938 341.765)"/>
    <polygon fill-rule="nonzero" points="0 39.175 7.757 39.175 7.757 16.349 18.934 16.349 18.934 8.488 0 8.488" transform="matrix(1 0 0 -1 179.587 341.765)"/>
    <polygon fill-rule="nonzero" points="0 39.175 20.867 39.175 20.867 31.314 7.77 31.314 7.77 27.475 19.679 27.475 19.679 20.188 7.77 20.188 7.77 16.349 21.259 16.349 21.259 8.488 0 8.488" transform="matrix(1 0 0 -1 200.45 341.765)"/>
    <polygon fill-rule="nonzero" points="26.117 0 17.433 0 9.898 30.687 17.746 30.687 21.886 12.079 21.938 12.079 26.025 30.687 33.991 30.687" transform="matrix(1 0 0 -1 213.87 333.274)"/>
    <polygon fill-rule="nonzero" points="250.78 302.596 258.562 302.596 258.562 333.283 250.78 333.283"/>
    <path fill-rule="nonzero" d="M13.05826,13.05826 C13.05826,12.2878227 13.1627261,11.5957349 13.3455417,11.0342297 C13.9070469,9.19301504 15.6046207,8.80126724 17.0540876,8.80126724 C18.3207388,8.80126724 20.2664195,9.31053938 20.2664195,11.5957349 C20.2664195,13.1757843 19.1564674,13.6067069 14.8211251,15.1084068 C10.8383558,16.4925824 6.2679648,17.8245249 6.2679648,24.0141401 C6.2679648,31.0917171 11.2562201,34.1473499 16.4534076,34.1473499 C21.9248185,34.1473499 26.7563747,31.6140475 26.9653069,24.1316645 L19.6265648,24.1316645 C19.7702056,25.2938496 19.3392831,26.064287 18.6994283,26.5996756 C18.0726318,27.1350643 17.1846702,27.3570547 16.4142328,27.3570547 C15.3565138,27.3570547 13.6197652,27.0175399 13.6197652,25.2938496 C13.763406,23.1131202 17.3674858,22.6430228 20.9323908,21.4286047 C24.510354,20.2272447 28.0360842,18.2032144 28.0360842,12.5881626 C28.0360842,4.58344926 21.9901098,2.01097204 16.3881163,2.01097204 C13.5152991,2.01097204 5.3538866,3.264565 5.2885953,13.05826 L13.05826,13.05826 Z" transform="matrix(1 0 0 -1 256.302 336.01)"/>
    <polygon fill-rule="nonzero" points="286.834 302.596 294.603 302.596 294.603 333.283 286.834 333.283"/>
    <path fill-rule="nonzero" d="M13.05826,39.17478 C20.7365169,39.17478 25.8553548,32.4628344 25.8553548,23.1000619 C25.8553548,13.7372895 20.7365169,7.03840214 13.05826,7.03840214 C5.40611964,7.03840214 0.27422346,13.7372895 0.27422346,23.1000619 C0.27422346,32.4628344 5.40611964,39.17478 13.05826,39.17478 M13.05826,14.6774842 C15.0431155,14.6774842 18.0856901,16.270592 18.0856901,23.1000619 C18.0856901,29.9295319 15.0431155,31.5356979 13.05826,31.5356979 C11.0864627,31.5356979 8.04388816,29.9295319 8.04388816,23.1000619 C8.04388816,16.270592 11.0864627,14.6774842 13.05826,14.6774842" transform="matrix(1 0 0 -1 296.973 341.037)"/>
    <polygon fill-rule="nonzero" points="0 39.175 7.952 39.175 15.291 22.761 15.37 22.761 15.37 39.175 22.708 39.175 22.708 8.488 15.161 8.488 7.417 25.242 7.352 25.242 7.352 8.488 0 8.488" transform="matrix(1 0 0 -1 325.716 341.765)"/>
    <path d="M13.05826,13.05826 L11.3868027,13.05826 L11.3868027,20.8670995 L14.311853,20.8670995 C16.3097667,20.8670995 17.5111267,20.3055943 17.5111267,18.5035544 C17.5111267,17.0671458 16.6623398,16.5578737 15.6307372,16.4795241 L17.6155927,13.05826 L15.6437955,13.05826 L13.8417556,16.3489415 L13.05826,16.3489415 L13.05826,13.05826 M14.5338434,17.6678258 C15.2781642,17.6678258 15.7352033,17.8245249 15.7352033,18.6863701 C15.7352033,19.4829239 14.8602999,19.5482152 14.2204451,19.5482152 L13.05826,19.5482152 L13.05826,17.6678258 L14.5338434,17.6678258 M14.2596199,9.70228718 C10.4074332,9.70228718 6.97311084,12.3661722 6.97311084,16.9496215 C6.97311084,21.5330707 10.4074332,24.210014 14.2596199,24.210014 C18.0987484,24.210014 21.5330707,21.5330707 21.5330707,16.9496215 C21.5330707,12.3661722 18.0987484,9.70228718 14.2596199,9.70228718 M14.2596199,22.5124402 C11.3868027,22.5124402 9.06243244,20.3055943 9.06243244,16.9496215 C9.06243244,13.6067069 11.3868027,11.3737445 14.2596199,11.3868027 L14.2596199,11.3737445 C17.0671458,11.3737445 19.4437491,13.6067069 19.4437491,16.9496215 C19.4437491,20.3055943 17.0671458,22.5124402 14.2596199,22.5124402" transform="matrix(1 0 0 -1 346.91 326.34)"/>
    <path fill-rule="nonzero" d="M417.86432,249.1652 C414.651988,251.358988 408.893295,252.455882 403.199894,251.959668 C397.780716,251.502629 394.176636,248.851802 391.212411,246.396849 C391.251586,246.422965 383.49498,238.744709 383.49498,238.744709 L381.418716,235.42791 C381.3926,235.388736 374.497839,226.770284 374.497839,226.770284 C374.497839,226.770284 374.432547,226.691935 374.419489,226.678876 L374.419489,274.472108 L353.265108,287.190853 L353.278166,200.379541 L353.003943,199.961676 L347.937338,194.00711 L347.937338,287.190853 L217.171922,287.190853 L170.6584,240.91238 L129.342065,287.190853 L0.36563128,287.190853 L0.36563128,0.2747644 L131.535853,0.2747644 L131.535853,126.665663 L170.149128,86.8379699 L217.56367,127.253285 L217.56367,0.2747644 L347.963454,0.2747644 L347.950396,121.350951 C348.96894,123.0877 349.804669,124.471875 349.804669,124.471875 C349.817727,124.51105 350.914621,126.091099 350.914621,126.091099 C350.979912,126.169449 352.089864,127.945372 353.304283,129.877995 L353.317341,0.2747644 L374.419489,14.8477826 L374.419489,167.720832 C375.346625,169.105008 376.730801,171.168213 376.730801,171.168213 C376.926675,171.49467 379.982308,176.065061 379.982308,176.065061 C379.982308,176.078119 384.83998,183.207929 384.83998,183.207929 C384.892214,183.325453 386.694253,185.610649 386.694253,185.610649 L391.186295,191.970021 C392.074256,194.020168 394.607559,195.378227 395.57387,195.887499 L396.030909,196.135606 L396.644647,196.579587 L398.982076,198.943132 C399.021251,198.995365 403.043195,202.390513 403.043195,202.390513 L409.91184,205.589786 L416.323445,209.115517 C416.349562,209.128575 422.199662,216.336734 422.199662,216.336734 L425.320586,226.025963 C425.333645,226.039022 426.234665,235.414852 426.234665,235.414852 C426.038791,240.181117 422.434711,246.083451 417.86432,249.1652 M260.734277,171.129038 C260.877918,170.21496 261.374132,161.727091 261.348016,160.329857 C261.321899,156.125098 261.609181,151.489415 261.478598,149.622084 C261.374132,148.198734 261.570006,143.288828 261.570006,143.288828 C261.922579,139.410525 262.758308,135.16659 262.836657,134.409211 C263.006415,132.424356 262.262094,124.88974 262.484084,123.179108 C262.510201,122.826535 263.123939,119.679494 262.993356,118.935173 C262.653842,116.976434 263.228405,114.612889 263.163114,113.724927 C263.058648,112.170994 262.993356,110.395071 262.941123,108.501623 C262.836657,105.694097 262.745249,102.795164 262.484084,100.261861 C262.405735,99.6220065 262.497143,95.1952563 262.497143,95.1952563 C261.98787,90.7423897 261.439423,86.1458822 262.196803,81.5363164 C262.340443,80.6091799 262.157628,77.5666053 262.235977,77.0312167 C262.353502,76.3391289 263.332871,72.7611657 263.476512,71.9776701 C263.685444,70.8024267 264.129425,65.3571322 264.717047,64.1035393 C265.29161,62.8368881 267.629039,57.2871276 267.837971,56.6211563 C268.530059,54.5187764 269.587778,49.4521716 268.634525,46.8666361 C267.733505,44.4247415 266.375446,38.6138158 265.422193,37.1643489 C264.599522,35.8976977 263.358988,35.1533769 262.771366,34.2392987 C262.209861,33.3905118 261.099909,32.6070162 260.172772,32.2413849 C257.299955,31.1183745 252.207234,30.3348789 247.793542,31.6798797 C246.00456,32.2152684 243.3015,32.045511 240.258926,33.8867256 C237.777856,35.3884255 236.929069,39.5017774 236.576496,41.7086234 C236.406739,42.7402259 236.707079,45.4955188 236.641788,45.9264414 C236.563438,46.5532378 235.623243,50.627415 235.623243,51.933241 C235.610185,52.586154 235.845234,55.3414468 235.544894,57.156545 C235.166204,59.4939735 234.030136,63.2939272 234.030136,63.2939272 C233.716737,64.8478601 232.881009,68.2168912 232.841834,68.3213573 C231.940814,70.8416014 231.496833,73.2965543 231.235668,75.3858759 C230.752512,79.2250044 231.705765,82.4242781 232.554552,85.2579205 C233.037708,86.890203 233.494747,88.4180194 233.690621,89.9588941 C233.821204,91.0688462 232.959358,96.331325 233.129116,98.0941901 C233.181349,98.8123944 233.768971,101.09759 233.795087,101.39793 C234.017077,102.886571 234.069311,106.856283 234.082369,107.470021 C234.095427,108.266575 234.630816,111.609489 234.565524,115.069928 C234.539408,116.427987 234.395767,117.838279 234.565524,119.26163 C234.735282,120.776388 234.865864,124.641633 234.578583,126.430614 C234.121544,129.159791 234.304359,131.601685 234.291301,131.71921 C234.095427,134.578969 233.92567,137.582368 234.095427,140.141787 C234.121544,140.546593 233.62533,144.881936 233.612271,146.226936 C233.586155,147.075723 233.533922,152.390435 233.481689,153.017232 C232.34562,166.245249 230.556639,168.778551 229.838434,169.261707 C229.12023,169.731804 227.174549,169.705688 226.064597,169.183357 C225.21581,168.79161 223.008964,166.872045 221.141633,165.866559 C219.313477,164.900248 215.905271,163.281024 214.743086,162.419179 C213.398085,161.400635 211.191239,159.690002 206.895071,157.339516 C205.811236,156.751894 204.988565,155.746408 204.009196,154.858446 C202.585846,153.604853 199.921961,150.914852 195.612735,148.734122 C193.497297,147.676403 191.616907,146.435869 190.102149,144.960285 C189.475353,144.333489 187.164041,140.468244 185.675399,139.018777 C184.225932,137.634601 183.311854,135.688921 183.050689,135.088241 C182.29331,133.469016 181.470639,131.653918 179.877532,130.465617 C177.40952,128.624402 172.029517,128.284887 168.778011,129.642946 C166.701747,130.504791 162.562279,133.286201 160.760239,138.104699 C158.945141,142.910138 160.459899,149.073637 164.05092,153.069465 C166.414465,155.694175 170.096895,156.751894 173.674858,157.75738 C175.881704,158.384176 177.984084,158.984856 179.603308,159.885876 C180.399862,160.329857 182.946223,162.236363 183.481611,162.588936 C184.291223,163.124325 187.177099,164.521559 187.738604,164.88719 C188.260934,165.239763 191.303509,167.89059 193.340598,169.039717 C196.709629,170.920106 199.386572,172.434864 200.966621,173.427292 C200.966621,173.427292 205.602304,176.038944 208.605704,178.885645 C209.284733,179.538558 212.170608,180.609335 215.330707,182.398317 C216.127261,182.855356 219.431001,183.965308 220.26673,184.330939 C220.841293,184.605163 223.139547,186.289678 223.818576,186.642251 C226.782801,188.183126 228.271443,190.02434 227.435714,194.60779 C227.135374,196.200897 226.652219,197.820122 226.821976,199.739686 C226.874209,200.209783 227.553239,203.095659 228.650133,205.080514 C229.19858,206.099059 230.060425,206.072942 230.54358,207.013137 C231.026736,207.979448 232.72431,208.78906 233.84732,209.076342 C234.630816,209.833721 236.25004,210.643333 238.143488,210.969789 C242.296014,211.661877 247.636843,208.619303 248.40728,208.462604 C249.869805,208.136147 252.350875,208.358137 253.656701,208.736827 C253.917866,208.78906 255.61544,209.899012 256.242236,210.134061 C257.077965,210.447459 259.754908,211.178722 260.303355,211.374596 C261.126025,211.661877 264.939037,213.659791 265.905348,214.025422 C266.897776,214.404112 269.19603,214.821976 270.332099,215.083141 C272.147197,216.375909 275.555403,217.485861 276.861229,218.608872 C278.336812,219.901639 280.334726,222.996447 280.75259,223.544894 C281.523027,224.563438 285.283806,227.096741 285.819195,227.501547 C287.046671,228.467858 289.854197,230.439655 291.760703,230.988102 C292.674781,231.249267 295.351725,230.70082 296.984007,230.713879 C298.812164,230.713879 301.371583,230.609413 303.304205,227.684362 C304.270516,226.208779 305.889741,224.707079 306.307605,222.66999 C307.561198,216.310618 302.807991,210.003478 299.203911,207.757458 C298.83828,207.535467 297.088473,207.026195 296.017696,206.673622 C294.515996,206.177408 292.98818,205.080514 291.969635,204.806291 C289.945605,204.270902 288.953177,202.86061 288.117449,202.416629 C287.294778,201.985707 284.500311,200.262016 283.599291,199.765802 C282.907203,199.400171 281.771134,197.780947 279.720987,197.180267 C278.336812,196.762403 275.450936,195.939732 273.152683,193.915702 C272.19943,193.079973 268.321126,192.283419 267.211174,192.035313 C266.79331,191.930846 261.84423,189.841525 261.348016,186.942591 C260.825685,183.900017 261.256608,183.090404 260.682044,178.728946 C260.329471,176.012827 260.512287,172.813554 260.734277,171.129038 M421.964614,226.731109 C421.585924,224.955186 420.593496,220.567611 419.183204,217.995133 C418.569466,216.859065 416.127571,213.254985 414.273299,211.870809 C412.471259,210.538867 409.859607,209.219983 408.762713,208.828235 C407.744169,208.462604 402.755913,206.138233 401.410912,205.420029 C398.995134,204.114203 397.702367,202.651678 396.435715,201.254444 C395.782802,200.523182 395.142948,199.844152 394.37251,199.165122 C394.07217,198.903957 389.64542,197.088859 388.039254,193.341139 C387.059885,191.069001 382.646193,186.354969 381.901872,184.99691 C380.804978,183.038171 379.185754,180.087005 377.56653,178.506955 C377.083374,178.036858 376.561044,177.318653 376.012597,176.482925 C375.503325,175.725546 374.980994,174.876759 374.419489,173.949622 C374.26279,173.701515 374.132207,173.492583 373.975508,173.244476 C372.930847,171.520786 371.755604,169.562047 371.076574,168.843843 C369.392059,167.028745 368.412689,164.678258 367.616136,162.758694 C367.302737,162.014373 364.534386,158.05772 363.489725,155.302427 C363.032686,154.061892 360.629966,150.039948 360.368801,149.42621 C359.859529,148.133442 356.764721,145.130043 356.464381,144.542421 C356.020401,143.641401 355.615595,142.413925 355.19773,141.134215 C354.832099,139.97203 353.878846,137.686834 353.55239,136.798873 C353.147583,136.132901 352.625253,135.284115 352.076806,134.383095 C352.05069,134.34392 352.037631,134.317803 352.011515,134.291687 C351.606709,133.625716 351.201903,132.959744 350.77098,132.267656 C349.804669,130.700665 348.825299,129.159791 348.185445,128.167363 C347.754522,127.618916 347.323599,126.979061 346.94491,126.404498 C346.331172,125.503478 341.83913,117.838279 340.807528,116.010123 C340.350489,115.174394 339.788983,114.338666 339.21442,113.463762 C337.843303,111.413615 336.433011,109.311235 335.753981,106.712642 C335.323059,105.093417 334.082524,102.416474 333.991116,102.181425 C332.228251,97.8460831 331.549221,93.1842843 331.366406,91.8654 C331.092182,89.7107871 331.157474,87.5300577 331.248881,85.4407361 C331.340289,83.1816571 331.418639,81.0401025 331.053008,79.1466548 C330.373978,75.6339829 329.002861,72.173544 327.187763,69.4051928 C326.704607,68.6478138 324.993975,66.3103852 322.969945,64.4299958 C321.494361,63.0588785 319.078583,62.4973733 314.651833,62.4581985 C308.658092,62.432082 306.085614,64.6519862 302.899399,69.3399015 C302.377069,70.0972806 301.358524,72.0690779 300.11799,74.7199047 C298.524882,78.101994 297.219056,81.1968016 296.082987,85.2709787 C295.730414,86.4984552 295.2342,87.8565142 294.777161,89.1753985 C294.254831,90.6118071 293.13182,94.6598677 293.040413,95.3258389 C292.935947,95.9918102 291.525655,100.705842 291.434247,101.162881 C290.8858,104.048757 290.128421,106.7257 289.3841,109.311235 C288.626721,111.97512 287.908516,114.495365 287.464536,117.093958 C287.033613,119.588086 285.701671,123.623088 284.722301,126.548139 C284.722301,126.548139 282.841912,132.515763 282.241232,134.64426 C281.418561,137.530135 278.72856,145.495674 278.72856,145.495674 C277.723074,148.211792 275.34647,154.584223 275.176713,155.602767 C273.766421,163.881704 273.779479,170.554475 275.268121,173.466467 C275.934092,174.798409 278.219288,176.065061 280.060502,177.083605 C280.67424,177.436178 283.703757,179.394917 284.35667,179.564674 C286.237059,180.073946 289.3841,180.230645 292.034927,179.956422 C292.3875,179.917247 295.639006,179.891131 296.81425,179.055402 C301.188767,176.012827 301.502165,172.082291 302.076729,164.939423 C302.076729,164.939423 302.834108,157.261166 303.199739,154.375291 C303.460904,152.246794 303.748186,150.039948 303.970176,147.859219 C304.113817,146.357519 304.192167,144.712178 304.257458,143.132129 C304.374982,140.27237 305.354352,134.814017 305.354352,134.814017 C306.333721,131.536394 307.273916,128.41547 311.113045,126.796246 C312.157705,126.365323 313.346007,126.443673 314.469017,127.070469 C317.093728,128.467703 319.483389,132.724696 320.397467,137.634601 C320.4497,137.908825 320.841448,138.47033 321.220138,139.018777 C322.134216,140.285428 323.374751,142.035235 324.014605,144.908052 C324.210479,145.626256 325.973344,148.055093 327.018005,149.50456 C328.088783,150.980143 329.08121,152.364319 329.668832,153.408979 C329.864706,153.761552 334.226165,160.564906 334.226165,160.564906 C334.226165,160.564906 335.91068,164.312627 336.628885,165.70986 C337.347089,167.133211 337.973885,168.830784 338.039177,169.118066 C338.39175,170.580591 339.109954,173.649282 340.546363,175.346856 C342.505102,177.658168 344.633598,182.855356 344.738064,183.077346 C345.208161,183.965308 346.487871,186.172154 347.676173,188.117835 C347.741464,188.196184 347.858988,188.365941 347.937338,188.470408 L347.937338,188.483466 C347.963454,188.509582 348.002629,188.561815 348.028746,188.587932 C348.551076,189.28002 349.230105,190.194098 349.752436,190.820894 L353.513215,195.273761 C354.283652,196.10949 355.054089,196.971335 355.746177,197.91153 C356.47744,198.877841 358.031373,201.163036 359.40249,203.187067 C360.238219,204.453718 362.653997,207.600758 363.398318,208.384254 C364.12958,209.141633 369.614049,216.51955 370.462836,217.64256 C370.815409,218.099599 373.06143,220.384795 374.419489,221.755912 C374.419489,221.768971 374.432547,221.768971 374.432547,221.782029 C376.312937,223.675476 377.005024,224.367564 377.253131,224.694021 C378.350025,226.169604 379.538327,227.606013 380.687454,229.003247 C381.836581,230.40048 383.011824,231.823831 384.134834,233.325531 C384.631048,233.952327 385.8977,236.224464 386.237214,236.668445 C387.425516,238.235436 393.236442,243.602381 393.406199,243.746022 C396.109259,245.978985 399.0996,248.159714 403.487176,248.538404 C408.292615,248.956268 413.411453,248.04219 415.944756,246.318499 C419.574952,243.876605 422.643643,238.914466 422.800342,235.271211 C422.957041,231.771598 422.695876,230.348247 421.964614,226.731109" transform="matrix(1 0 0 -1 .762 294.19)"/>
  </g>
</svg>
